<?xml version="1.0" encoding="UTF-8"?>
<!-- Generator: Adobe Illustrator 16.0.0, SVG Export Plug-In . SVG Version: 6.00 Build 0)  -->
<!DOCTYPE svg PUBLIC "-//W3C//DTD SVG 1.1//EN" "http://www.w3.org/Graphics/SVG/1.1/DTD/svg11.dtd">
<svg version="1.1" id="Layer_1" xmlns="http://www.w3.org/2000/svg" xmlns:xlink="http://www.w3.org/1999/xlink" x="0px" y="0px" width="329.1px" height="110.932px" viewBox="0 0 329.1 110.932" enable-background="new 0 0 329.1 110.932" xml:space="preserve">
<g>
	<g>
		<g>
			<path fill="#666666" d="M125.872,97.814c-0.503,0.805-1.307,1.305-2.209,1.305c-1.809,0-2.611-1.305-2.209-3.111l0.704-3.414     c0.101-0.299,0.201-0.399,0.4-0.399h0.102c0.201,0,0.4,0.102,0.4,0.399l-0.701,3.517c-0.303,1.305,0.199,2.106,1.404,2.106     c1.004,0,1.708-0.5,2.31-1.604l0.803-4.019c0.102-0.299,0.202-0.399,0.4-0.399h0.103c0.201,0,0.4,0.102,0.4,0.399l-1.004,4.921     c-0.1,0.702,0,0.903,0.604,0.903c0,0,0.101,0.603-0.604,0.603C126.072,99.019,125.771,98.619,125.872,97.814z"/>
			<path fill="#666666" d="M137.918,98.117c0-0.4,0.202-1.104,0.401-1.809c0.202-0.701,0.403-1.406,0.403-1.808     c0-1.002-0.603-1.604-1.406-1.604c-1.004,0-1.605,0.399-2.209,1.506l-0.903,4.117c-0.101,0.301-0.301,0.397-0.501,0.397h-0.102     c-0.2,0-0.399-0.098-0.3-0.397l0.704-3.517c0.3-1.307-0.302-2.106-1.305-2.106c-1.005,0-1.607,0.399-2.209,1.506l-0.905,4.117     c-0.101,0.301-0.299,0.397-0.502,0.397h-0.101c-0.2,0-0.4-0.098-0.3-0.397l1.304-6.326c0,0,0.101,0,0.201,0     c0.402,0,0.702,0.201,0.502,1.004l0,0c0.503-0.699,1.306-1.105,2.109-1.105c1.104,0,1.807,0.604,2.107,1.507     c0.502-0.804,1.405-1.507,2.51-1.507c1.306,0,2.209,1.007,2.209,2.312c0,0.5-0.201,1.305-0.4,2.008     c-0.202,0.703-0.303,1.205-0.303,1.504c0,0.402,0.201,0.504,0.603,0.504c0,0,0,0.603-0.603,0.603     C138.22,99.119,137.918,98.718,137.918,98.117z"/>
			<path fill="#666666" d="M145.95,97.716c-0.603,1.002-1.606,1.402-2.61,1.402c-1.406,0-2.71-1.002-2.71-2.811     c0-2.107,1.606-4.218,3.813-4.218c1.105,0,2.009,0.604,2.411,1.408l0.101-0.401c0.101-0.703,0.4-0.904,0.704-0.904     c0.198,0,0.401,0.102,0.401,0.102l-1.104,5.22c-0.101,0.702,0,0.903,0.603,0.903c0,0,0.102,0.603-0.603,0.603     C146.05,99.119,145.75,98.619,145.95,97.716z M146.352,95.806l0.202-1.104c-0.302-1.104-1.005-1.707-2.21-1.707     c-1.808,0-2.811,1.807-2.811,3.414c0,1.307,0.903,2.008,1.907,2.008C144.845,98.316,146.05,97.113,146.352,95.806z"/>
			<path fill="#666666" d="M150.969,96.41c0-2.408,1.808-4.318,4.216-4.318c1.507,0,2.411,0.703,2.411,1.81     c0,1.305-0.904,2.106-3.917,2.106c-0.501,0-1.103,0-1.805-0.1c0,0.1,0,0.301,0,0.4c0,1.205,0.702,2.008,2.007,2.008     c1.003,0,1.707-0.402,2.309-1.104c0,0,0.502,0.101,0.502,0.402c0,0.199-0.099,0.299-0.302,0.602     c-0.602,0.604-1.405,0.902-2.509,0.902C151.974,99.119,150.969,98.017,150.969,96.41z M152.074,95.205     c0.603,0.103,1.104,0.103,1.506,0.103c2.408,0,3.013-0.604,3.013-1.306c0-0.502-0.501-1.006-1.507-1.006     C153.781,92.896,152.576,93.9,152.074,95.205z"/>
			<path fill="#666666" d="M167.333,98.117c0-0.4,0.2-1.104,0.402-1.809c0.202-0.701,0.3-1.406,0.3-1.808     c0-1.002-0.603-1.604-1.402-1.604c-1.006,0-1.607,0.399-2.211,1.506l-0.903,4.117c-0.1,0.301-0.302,0.397-0.501,0.397h-0.1     c-0.203,0-0.404-0.098-0.304-0.397l0.702-3.517c0.303-1.307-0.3-2.106-1.305-2.106c-1.003,0-1.604,0.399-2.207,1.506     l-0.904,4.117c-0.101,0.301-0.302,0.397-0.501,0.397h-0.1c-0.202,0-0.403-0.098-0.303-0.397l1.305-6.326c0,0,0.101,0,0.203,0     c0.398,0,0.701,0.201,0.501,1.004l0,0c0.501-0.699,1.305-1.105,2.106-1.105c1.005,0,1.808,0.604,2.108,1.507     c0.502-0.804,1.405-1.507,2.509-1.507c1.306,0,2.211,1.007,2.211,2.312c0,0.5-0.201,1.305-0.404,2.008     c-0.199,0.703-0.3,1.205-0.3,1.504c0,0.402,0.202,0.504,0.603,0.504c0,0,0,0.603-0.603,0.603     C167.737,99.119,167.333,98.718,167.333,98.117z"/>
			<path fill="#666666" d="M169.443,101.326l1.909-9.031c0,0,0.101,0,0.198,0c0.402,0,0.701,0.203,0.502,1.002V93.5     c0.604-0.805,1.406-1.307,2.409-1.307c1.406,0,2.714,1.004,2.714,3.012s-1.509,4.017-3.617,4.017     c-1.203,0-2.105-0.701-2.408-1.505l-0.804,3.714c-0.1,0.303-0.202,0.401-0.402,0.401h-0.101     C169.542,101.732,169.342,101.63,169.443,101.326z M171.75,94.605l-0.299,1.303c-0.202,1.205,0.601,2.51,2.105,2.51     c1.708,0,2.711-1.707,2.711-3.213c0-1.406-0.902-2.209-1.909-2.209C173.257,92.896,172.251,93.597,171.75,94.605z"/>
			<path fill="#666666" d="M179.984,93.5c0.502-0.906,1.104-1.307,1.909-1.307c0.501,0,1.003,0.201,1.003,0.602     c0,0.402-0.301,0.604-0.4,0.604c-0.202-0.201-0.401-0.402-0.905-0.402c-1.104,0-1.808,1.406-2.208,3.213l-0.502,2.312     c-0.102,0.301-0.2,0.397-0.402,0.397h-0.099c-0.2,0-0.403-0.098-0.403-0.397l1.307-6.326c0,0,0.101,0,0.201,0     c0.399,0,0.7,0.201,0.501,1.004L179.984,93.5L179.984,93.5z"/>
			<path fill="#666666" d="M182.794,96.41c0-2.408,1.806-4.318,4.216-4.318c1.505,0,2.41,0.703,2.41,1.81     c0,1.305-0.905,2.106-3.914,2.106c-0.501,0-1.106,0-1.808-0.1c0,0.1,0,0.301,0,0.4c0,1.205,0.7,2.008,2.007,2.008     c1.006,0,1.707-0.402,2.308-1.104c0,0,0.502,0.101,0.502,0.402c0,0.199-0.097,0.299-0.298,0.602     c-0.604,0.604-1.406,0.902-2.512,0.902C183.797,99.119,182.794,98.017,182.794,96.41z M183.899,95.205     c0.604,0.103,1.106,0.103,1.506,0.103c2.409,0,3.015-0.604,3.015-1.306c0-0.502-0.502-1.006-1.508-1.006     C185.506,92.896,184.4,93.9,183.899,95.205z"/>
			<path fill="#666666" d="M189.922,98.216c-0.199-0.198-0.302-0.401-0.302-0.602c0-0.402,0.502-0.602,0.502-0.502     c0.402,0.701,1.207,1.305,2.41,1.305c1.003,0,1.605-0.504,1.605-1.104c0-0.602-0.604-0.902-1.605-1.203     c-1.005-0.303-2.008-0.703-2.008-1.908c0-1.104,1.003-2.008,2.51-2.008c1.004,0,1.806,0.305,2.21,0.803     c0.199,0.201,0.302,0.504,0.302,0.701c0,0.404-0.505,0.504-0.505,0.504c-0.299-0.701-1.205-1.205-2.104-1.205     c-1.006,0-1.508,0.504-1.508,1.105c0,0.7,0.701,0.901,1.704,1.305c1.006,0.301,2.009,0.703,2.009,1.807     c0,1.205-1.003,2.009-2.608,2.009C191.228,99.119,190.423,98.718,189.922,98.216z"/>
			<path fill="#666666" d="M201.467,97.716c-0.603,1.002-1.606,1.402-2.609,1.402c-1.404,0-2.713-1.002-2.713-2.811     c0-2.107,1.609-4.218,3.817-4.218c1.104,0,2.009,0.604,2.41,1.408l0.101-0.401c0.101-0.703,0.299-0.904,0.701-0.904     c0.202,0,0.302,0.102,0.302,0.102l-1.104,5.22c-0.103,0.702,0,0.903,0.602,0.903c0,0,0.101,0.603-0.602,0.603     C201.667,99.119,201.367,98.619,201.467,97.716z M201.868,95.806l0.202-1.104c-0.303-1.104-1.006-1.707-2.211-1.707     c-1.807,0-2.811,1.807-2.811,3.414c0,1.307,0.903,2.008,1.909,2.008C200.464,98.316,201.667,97.113,201.868,95.806z"/>
		</g>
	</g>
	<g>
		<g>
			<path fill="#F47F20" d="M246.552,91.159c-1.566,0-2.886,1.078-3.484,2.521c0.6,0,1.097,0.121,1.562,0.121     c2.884,0,3.73-0.723,3.73-1.439C248.225,91.755,247.63,91.159,246.552,91.159z"/>
			<path fill="#F47F20" d="M278.934,91.515c-1.071,0-2.17,0.722-2.757,1.68l-0.365,1.443c-0.356,1.683,0.593,3.105,2.408,3.105     c1.924,0,2.979-1.778,2.979-3.704C281.104,92.473,280.144,91.515,278.934,91.515z"/>
			<path fill="#F47F20" d="M314.33,91.159c-1.562,0-2.906,1.078-3.487,2.521c0.581,0,1.062,0.121,1.428,0.121     c2.877,0,3.699-0.723,3.699-1.439C315.97,91.755,315.388,91.159,314.33,91.159z"/>
			<path fill="#F47F20" d="M318.971,79.168l-104.446-4.556h-0.112c-2.277,0-4.08,2.271-4.08,5.258v25.798     c0,2.998,1.803,5.264,4.08,5.264h0.112l104.446-4.426c2.293-0.113,4.199-2.04,4.199-4.185V83.369     C323.17,81.085,321.377,79.168,318.971,79.168z M226.288,90.792c0.835,0,1.186,0.367,1.186,0.849     c0,0.357-0.105,1.075-0.466,1.316c-0.242,0.238-0.493,0.366-1.096,0.366H221l-0.715,3.594h6.229c0.854,0,1.317,0.363,1.317,0.968     c0,0.36-0.108,1.057-0.465,1.421c-0.244,0.239-0.493,0.354-1.207,0.354h-7.553c-1.314,0-1.914-0.719-1.563-2.021l2.396-11.512     c0.244-1.096,0.958-1.704,1.92-1.704h7.684c0.847,0,1.313,0.371,1.313,0.967c0,0.361-0.239,1.103-0.468,1.467     c-0.242,0.226-0.491,0.346-1.204,0.346h-6.231l-0.729,3.35h4.563L226.288,90.792L226.288,90.792z M239.356,92.237l-4.446,6.843     c-0.47,0.725-1.308,0.822-1.913,0.822c-0.72,0-1.562-0.243-1.678-1.061l-0.842-6.009c-0.23-1.675-0.72-2.042-1.546-2.151     c0,0,0.111-1.566,1.922-1.566c0.581,0,1.064,0.118,1.534,0.616c0.608,0.587,0.854,1.547,0.966,2.983l0.372,3.851l4.187-7.45     c0,0,2.047,0.118,2.047,1.436C239.957,91.159,239.823,91.515,239.356,92.237z M244.76,95.597c-0.597,0-1.327,0-2.165-0.141v0.141     c0,1.424,0.838,2.385,2.527,2.385c1.43,0,2.39-0.599,3.103-1.561c0-0.102,1.316,0.144,1.316,1.102     c0,0.601-0.11,0.823-0.583,1.318c-0.846,0.702-2.049,1.189-3.836,1.189c-3.482,0-5.05-1.908-5.05-4.435     c0-3.843,2.883-6.482,6.6-6.482c2.644,0,4.072,1.203,4.072,3.003C250.744,94.279,249.431,95.597,244.76,95.597z M262.384,98.842     c0,0-0.116,1.189-1.798,1.189c-1.44,0-2.044-0.729-2.044-1.908c0-0.601,0.238-1.448,0.492-2.525     c0.224-0.959,0.467-1.798,0.467-2.274c0-1.086-0.598-1.684-1.676-1.684c-1.073,0-1.675,0.479-2.396,1.556l-1.084,5.283     c-0.242,1.065-0.609,1.424-1.429,1.424h-0.354c-0.859,0-1.566-0.357-1.335-1.424l1.92-9.002c0-0.105,0.37-0.243,0.832-0.243     c0.852,0,1.674,0.498,1.674,1.805c0.856-1.307,2.056-2.045,3.604-2.045c2.168,0,3.365,1.442,3.365,3.367     c0,0.718-0.239,1.795-0.603,3.098c-0.239,1.107-0.482,1.927-0.482,2.287C261.426,98.478,261.782,98.701,262.384,98.842z      M270.67,91.755h-1.915l-0.961,4.308c-0.248,1.321,0.096,1.821,0.961,1.821c0.459,0,0.96-0.247,1.319-0.5     c0.098-0.104,0.454,0.253,0.454,0.963c0,0.495-0.117,0.855-0.454,1.197c-0.508,0.487-1.224,0.718-2.28,0.718     c-2.429,0-3.486-1.42-3.027-3.94l0.961-4.445h-0.46c-0.719,0-1.082-0.359-1.082-0.838c0-0.355,0.122-0.963,0.48-1.307     c0.249-0.255,0.479-0.255,1.062-0.255h0.599l0.146-0.604c0.359-1.563,0.959-2.163,2.283-2.163c0.588,0,1.058,0.24,1.058,0.37     l-0.47,2.396h1.792c0.718,0,1.077,0.356,1.077,0.842c0,0.363-0.117,0.96-0.479,1.321     C271.494,91.639,271.255,91.755,270.67,91.755z M278.579,100.032c-1.566,0-2.882-0.728-3.487-2.05     c-0.356,1.322-1.077,1.92-2.28,1.92c-0.6,0-1.078-0.243-1.078-0.357l2.765-13.293c0.237-1.078,0.595-1.458,1.441-1.458h0.357     c0.842,0,1.564,0.38,1.319,1.458l-0.955,4.666c0.696-1.084,1.918-1.685,3.346-1.685c2.287,0,4.078,1.559,4.078,4.444     C284.085,96.917,281.921,100.032,278.579,100.032z M292.595,92.473c-0.225-0.355-0.703-0.599-1.424-0.599     c-1.318,0-2.166,1.447-2.642,3.723l-0.6,2.881c-0.248,1.065-0.603,1.424-1.441,1.424h-0.362c-0.836,0-1.548-0.357-1.325-1.424     l1.925-9.002c0-0.105,0.361-0.243,0.845-0.243c0.835,0,1.678,0.498,1.678,1.805c0.604-1.307,1.561-2.045,2.886-2.045     c1.056,0,1.919,0.605,1.919,1.442C293.913,92.118,292.595,92.591,292.595,92.473z M298.487,90.792l-1.45,6.488     c-0.232,1.198,0,1.562,0.857,1.66c0,0-0.144,1.092-1.811,1.092c-1.93,0-2.39-1.189-2.031-2.869l1.314-6.371     c0.252-1.061,0.61-1.421,1.437-1.421h0.361C297.995,89.233,298.728,89.598,298.487,90.792z M297.894,87.815     c-1.091,0-1.692-0.506-1.692-1.324c0-1.103,0.727-1.817,1.795-1.817c1.092,0,1.683,0.5,1.683,1.317     C299.678,87.081,298.954,87.815,297.894,87.815z M306.394,91.755h-1.906l-0.971,4.308c-0.229,1.321,0.12,1.821,0.971,1.821     c0.457,0,0.953-0.247,1.312-0.5c0.116-0.104,0.482,0.253,0.482,0.963c0,0.495-0.143,0.855-0.482,1.197     c-0.495,0.487-1.219,0.718-2.283,0.718c-2.408,0-3.479-1.42-3-3.94l0.948-4.445h-0.448c-0.733,0-1.101-0.359-1.101-0.838     c0-0.355,0.121-0.963,0.484-1.307c0.248-0.255,0.479-0.255,1.063-0.255h0.616l0.115-0.604c0.374-1.563,0.958-2.163,2.29-2.163     c0.597,0,1.073,0.24,1.073,0.37l-0.478,2.396h1.779c0.718,0,1.078,0.356,1.078,0.842c0,0.363-0.098,0.96-0.454,1.321     C307.228,91.639,307.002,91.755,306.394,91.755z M312.492,95.597c-0.587,0-1.298,0-2.147-0.141v0.141     c0,1.424,0.98,2.385,2.518,2.385c1.469,0,2.408-0.599,3.107-1.561c0-0.102,1.345,0.144,1.345,1.102     c0,0.601-0.124,0.823-0.621,1.318c-0.796,0.702-2.018,1.189-3.831,1.189c-3.449,0-5.019-1.908-5.019-4.435     c0-3.843,2.857-6.482,6.562-6.482c2.654,0,4.114,1.203,4.114,3.003C318.52,94.279,317.191,95.597,312.492,95.597z"/>
		</g>
	</g>
	<g>
		<g>
			<path fill="#404040" d="M61.084,59.52l-3.487-24.401c-0.889-6.667-2.888-8.449-6.375-8.661c-0.188,0,0.608-6.263,7.765-6.263     c2.597,0,4.488,0.679,6.176,2.375c2.39,2.396,3.396,6.281,3.896,12.165l1.597,15.922L87.97,20.284     c0.102-0.206,8.478,0.295,8.478,6.081c0,1.896-0.706,3.374-2.601,6.271L75.621,60.411c-1.982,3.194-5.379,3.695-7.771,3.695     C64.774,64.106,61.583,62.905,61.084,59.52z"/>
			<path fill="#404040" d="M95.239,46.475c0-15.525,11.966-26.692,26.996-26.692c10.855,0,16.925,5.083,16.925,12.557     c0,8.757-5.566,14.037-24.685,14.037c-2.6,0-5.585-0.207-8.773-0.398v0.311c0,5.965,3.69,9.655,10.458,9.655     c5.674,0,9.868-2.592,12.646-6.287c0.206-0.296,5.289,0.598,5.289,4.695c0,2.281-0.708,3.488-2.394,5.261     c-3.298,3.189-8.362,5.082-15.748,5.082C101.918,64.694,95.239,56.923,95.239,46.475z M107.295,38.406     c2.289,0.196,4.283,0.296,6.176,0.296c11.941,0,15.245-2.689,15.245-6.067c0-2.294-2.391-4.582-7.089-4.582     C115.153,28.144,109.775,32.533,107.295,38.406z"/>
			<path fill="#404040" d="M156.88,28.144c3.393-5.175,8.477-8.36,14.743-8.36c8.771,0,13.856,5.674,13.856,13.857     c0,3.069-1.096,7.271-2.6,12.528c-1.093,4.281-1.981,7.771-1.981,9.464c0,2.505,1.095,3.391,3.485,3.788     c0.179,0-0.707,5.076-7.473,5.076c-5.797,0-8.482-2.993-8.482-7.661c0-2.484,0.798-5.672,2.098-10.548     c1.097-4.1,1.893-7.386,1.893-9.278c0-4.375-2.48-6.974-6.975-6.974c-4.282,0-7.063,2.007-9.837,6.289l-4.586,21.812     c-1.001,4.372-2.597,5.871-5.688,5.871h-1.281c-3.302,0-6.292-1.297-5.377-5.871l7.762-36.849     c0.098-0.301,1.485-0.798,3.377-0.798C153.595,20.492,156.992,22.383,156.88,28.144z"/>
			<path fill="#404040" d="M191.95,48.562l3.781-18.115h-2.097c-2.779,0-4.49-1.204-4.49-3.289c0-1.203,0.499-3.89,1.798-5.187     c0.891-0.794,1.894-1.186,4.286-1.186h2.604l0.479-2.486c1.202-6.291,3.794-8.978,9.271-8.978c2.591,0,4.669,1.102,4.577,1.507     l-2.099,9.958h7.185c2.982,0,4.669,1.301,4.669,3.282c0,1.191-0.505,3.983-1.896,5.175c-0.795,0.792-1.889,1.204-4.165,1.204     h-7.979l-3.779,17.524c-1.093,5.174,0.592,7.364,4.079,7.364c2.184,0,4.077-1.103,5.288-2.19     c0.383-0.296,1.979,1.088,1.979,3.777c0,1.896-0.684,3.399-2.102,4.789c-1.888,1.894-4.962,2.981-9.156,2.981     C194.226,64.801,189.761,58.933,191.95,48.562z"/>
			<path fill="#404040" d="M220.437,52.647l5.556-26.189c1.003-4.485,2.599-5.966,5.688-5.966h1.285     c3.299,0,6.293,1.285,5.377,5.966l-5.675,26.6c-0.987,4.783-0.194,6.556,3.399,7.06c0.089,0.099-0.595,4.382-7.183,4.382     C220.927,64.498,218.928,59.612,220.437,52.647z M229.303,8.333c0-4.185,2.861-7.169,7.146-7.169c4.401,0,6.885,2.188,6.885,5.38     c0,4.074-2.896,7.168-7.178,7.168C231.782,13.712,229.303,11.52,229.303,8.333z"/>
			<path fill="#404040" d="M239.852,45.075c0-13.031,9.245-25.292,24.188-25.292c12.864,0,20.523,8.477,20.523,19.621     c0,13.057-9.163,25.29-24.208,25.29C247.503,64.694,239.852,56.127,239.852,45.075z M273.807,39.901     c0-6.261-4.29-10.755-10.065-10.755c-7.669,0-13.052,7.368-13.052,15.435c0,6.169,4.288,10.656,10.083,10.656     C268.332,55.336,273.807,47.972,273.807,39.901z"/>
			<path fill="#404040" d="M283.167,57.84c0-2.603,1.005-4.197,4.08-6.676l23.695-20.823h-15.228c-4.089,0-6.081-1.4-6.081-4.09     c0-2.578,1.896-5.576,2.099-5.576h31.557c0.593,0,3.019,2.892,3.019,5.782c0,2.598-1.003,4.177-4.088,6.681l-23.724,20.802h16.64     c4.076,0,5.974,1.505,5.974,4.084c0,2.595-1.896,5.492-2.07,5.492h-32.886C285.652,63.605,283.167,60.713,283.167,57.84z"/>
			<g>
				<path fill="#404040" d="M2.928,54.652L12.59,8.939c1.094-4.991,4.079-7.272,8.753-7.272H51.83c3.872,0,6.062,1.485,6.062,4.173      c0,1.502-0.891,4.989-2.392,6.475c-1.094,1.201-2.281,1.498-5.474,1.498h-24.29L23.05,26.163h18.32      c3.679,0,5.577,1.488,5.577,3.874c0,1.398-0.701,4.585-2.091,6.177c-1.001,1.004-2.189,1.508-5.08,1.508H20.549l-2.876,13.533      h23.993c3.88,0,5.971,1.503,5.971,4.083c0,1.587-0.799,4.986-2.279,6.583c-1.099,1.09-2.391,1.481-5.492,1.481H10.094      C4.224,63.605,1.631,60.713,2.928,54.652z"/>
			</g>
		</g>
	</g>
</g>
</svg>